<svg width="21" height="20" viewBox="0 0 21 20" fill="none" xmlns="http://www.w3.org/2000/svg">
<g clip-path="url(#clip0_2062_102)">
<path d="M6.91699 18.75C7.60735 18.75 8.16699 18.1904 8.16699 17.5C8.16699 16.8096 7.60735 16.25 6.91699 16.25C6.22664 16.25 5.66699 16.8096 5.66699 17.5C5.66699 18.1904 6.22664 18.75 6.91699 18.75Z" fill="#C73B0F"/>
<path d="M15.667 18.75C16.3573 18.75 16.917 18.1904 16.917 17.5C16.917 16.8096 16.3573 16.25 15.667 16.25C14.9766 16.25 14.417 16.8096 14.417 17.5C14.417 18.1904 14.9766 18.75 15.667 18.75Z" fill="#C73B0F"/>
<path d="M3.77949 1.7525C3.75118 1.61087 3.6747 1.48341 3.56303 1.3918C3.45137 1.3002 3.31142 1.25009 3.16699 1.25H0.666992V2.5H2.65449L5.05449 14.4975C5.0828 14.6391 5.15929 14.7666 5.27095 14.8582C5.38262 14.9498 5.52256 14.9999 5.66699 15H16.917V13.75H6.17949L5.67949 11.25H16.917C17.0592 11.25 17.1971 11.2015 17.308 11.1125C17.4189 11.0235 17.4961 10.8994 17.527 10.7606L18.9445 4.375H17.6651L16.4157 10H5.42949L3.77949 1.7525Z" fill="#C73B0F"/>
<path d="M11.917 3.75V1.25H10.667V3.75H8.16699V5H10.667V7.5H11.917V5H14.417V3.75H11.917Z" fill="#C73B0F"/>
</g>
<defs>
<clipPath id="clip0_2062_102">
<rect width="20" height="20" fill="white" transform="translate(0.666992)"/>
</clipPath>
</defs>
</svg>
